<?xml version="1.0" standalone="no"?>
<!DOCTYPE svg PUBLIC "-//W3C//DTD SVG 20010904//EN"
 "http://www.w3.org/TR/2001/REC-SVG-20010904/DTD/svg10.dtd">
<svg version="1.0" xmlns="http://www.w3.org/2000/svg"
 width="500.000000pt" height="500.000000pt" viewBox="0 0 500.000000 500.000000"
 preserveAspectRatio="xMidYMid meet">
<metadata>
Created by potrace 1.16, written by Peter Selinger 2001-2019
</metadata>
<g transform="translate(0.000000,500.000000) scale(0.100000,-0.100000)"
fill="#000000" stroke="none">
<path d="M1475 4088 c-473 -474 -868 -872 -877 -883 -17 -22 -9 -30 508 -546
288 -288 530 -525 538 -527 20 -4 246 224 350 353 80 100 247 343 303 441 l22
39 0 -35 c1 -113 -69 -342 -151 -503 -69 -135 -147 -249 -256 -378 l-90 -105
261 -263 261 -262 883 883 883 883 -420 420 -420 420 -137 -70 c-482 -245
-833 -604 -1089 -1109 -86 -170 -88 -164 -29 69 50 194 108 353 190 520 161
329 363 575 653 791 61 47 112 88 112 93 0 4 -11 18 -25 31 -25 24 -26 24 -58
5 -64 -37 -204 -142 -302 -226 -216 -187 -440 -470 -590 -749 -65 -120 -67
-108 -14 85 107 390 303 729 603 1040 52 55 96 103 96 106 0 3 -11 16 -25 29
-23 21 -26 22 -48 7 -47 -31 -193 -175 -275 -272 -98 -117 -249 -339 -347
-512 -38 -67 -71 -120 -73 -119 -6 7 49 217 83 316 87 253 269 555 424 705 23
21 41 46 41 55 0 14 -108 130 -120 130 -3 0 -392 -388 -865 -862z"/>
<path d="M4910 1080 c-10 -20 -21 -20 -454 -20 -382 0 -445 2 -456 15 -7 8
-23 15 -36 15 l-24 0 0 -145 0 -145 24 0 c16 0 27 7 31 20 6 19 15 20 149 20
111 0 146 -3 155 -14 14 -16 11 -685 -3 -723 l-8 -23 167 0 167 0 -8 28 c-9
32 -18 676 -9 710 5 21 9 22 145 22 138 0 140 0 156 -25 9 -14 25 -25 35 -25
18 0 19 10 19 155 0 147 -1 155 -20 155 -10 0 -24 -9 -30 -20z"/>
<path d="M415 1079 c-105 -15 -204 -57 -256 -109 -118 -118 -99 -306 39 -387
71 -42 129 -54 317 -63 198 -10 240 -18 285 -56 37 -32 40 -76 7 -125 -30 -45
-77 -60 -212 -66 -130 -6 -205 9 -325 63 -72 33 -79 39 -82 68 -2 19 -9 32
-20 34 -12 2 -34 -29 -81 -120 -62 -116 -65 -123 -47 -135 15 -11 23 -11 39
-2 16 11 31 7 96 -25 239 -117 526 -120 737 -9 127 67 191 153 191 254 -1 107
-80 224 -171 253 -53 17 -238 36 -354 36 -143 0 -228 35 -228 93 0 69 126 114
291 105 107 -6 250 -61 259 -99 3 -13 14 -25 23 -27 13 -3 30 24 73 115 51
109 54 118 37 130 -14 11 -20 11 -31 -1 -12 -12 -28 -8 -110 21 -167 60 -311
76 -477 52z"/>
<path d="M1735 1074 c-172 -33 -332 -153 -401 -298 -59 -125 -59 -276 2 -397
61 -123 188 -227 337 -275 71 -23 99 -27 202 -27 150 0 245 27 360 105 87 57
144 124 189 218 29 61 31 72 31 180 0 112 -1 117 -38 194 -110 231 -395 357
-682 300z m262 -211 c141 -65 210 -261 144 -411 -31 -68 -113 -144 -182 -167
-186 -62 -379 92 -379 301 0 141 109 278 241 303 59 11 113 3 176 -26z"/>
<path d="M3646 1065 l-17 -26 -439 3 -440 3 -2 -465 c-2 -256 -7 -473 -12
-483 -8 -16 4 -17 169 -17 l177 0 -21 34 c-19 29 -21 49 -21 168 0 91 4 138
12 146 9 9 68 12 205 12 163 0 195 -2 199 -15 4 -8 15 -15 25 -15 18 0 19 9
19 145 0 137 -1 145 -19 145 -11 0 -23 -9 -26 -20 -6 -20 -13 -20 -208 -18
l-202 3 0 90 0 90 291 3 290 2 24 -25 c13 -14 32 -25 42 -25 17 0 18 11 18
145 l0 145 -24 0 c-14 0 -30 -10 -40 -25z"/>
</g>
</svg>
